<?xml version="1.0" encoding="UTF-8"?>
<svg width="1200pt" height="1200pt" version="1.1" viewBox="0 0 1200 1200" xmlns="http://www.w3.org/2000/svg">
 <g fill="#fff">
  <path d="m1050 275h-350c-6.6328-0.003906-12.992 2.6289-17.684 7.3164-4.6875 4.6914-7.3203 11.051-7.3164 17.684v350c-0.003906 6.6328 2.6289 12.992 7.3164 17.684 4.6914 4.6875 11.051 7.3203 17.684 7.3164h225v25c-0.023438 19.883-7.9297 38.949-21.992 53.008-14.059 14.062-33.125 21.969-53.008 21.992h-50c-6.6328-0.003906-12.992 2.6289-17.684 7.3164-4.6875 4.6914-7.3203 11.051-7.3164 17.684v100c-0.003906 6.6328 2.6289 12.992 7.3164 17.684 4.6914 4.6875 11.051 7.3203 17.684 7.3164h50c113.55 0 225-111.43 225-225v-400c0.003906-6.6328-2.6289-12.992-7.3164-17.684-4.6914-4.6875-11.051-7.3203-17.684-7.3164z"/>
  <path d="m500 275h-350c-6.6328-0.003906-12.992 2.6289-17.684 7.3164-4.6875 4.6914-7.3203 11.051-7.3164 17.684v350c-0.003906 6.6328 2.6289 12.992 7.3164 17.684 4.6914 4.6875 11.051 7.3203 17.684 7.3164h225v25c-0.023438 19.883-7.9297 38.949-21.992 53.008-14.059 14.062-33.125 21.969-53.008 21.992h-50c-6.6328-0.003906-12.992 2.6289-17.684 7.3164-4.6875 4.6914-7.3203 11.051-7.3164 17.684v100c-0.003906 6.6328 2.6289 12.992 7.3164 17.684 4.6914 4.6875 11.051 7.3203 17.684 7.3164h50c113.55 0 225-111.43 225-225v-400c0.003906-6.6328-2.6289-12.992-7.3164-17.684-4.6914-4.6875-11.051-7.3203-17.684-7.3164z"/>
 </g>
</svg>
